Coordinates
version=1
nRows=24
nColumns=22
inDegrees=yes

Units are S.I. units (second, meters, Newtons, ...)
If the header above contains a line with 'inDegrees', this indicates whether rotational values are in degrees (yes) or radians (no).

endheader
time	pelvis_tilt	pelvis_list	pelvis_rotation	pelvis_tx	pelvis_ty	pelvis_tz	hip_flexion_r	hip_adduction_r	hip_rotation_r	knee_angle_r	ankle_angle_r	subtalar_angle_r	hip_flexion_l	hip_adduction_l	hip_rotation_l	knee_angle_l	ankle_angle_l	subtalar_angle_l	lumbar_extension	lumbar_bending	lumbar_rotation
      4.41000000	     -6.84415744	     -4.58497734	      6.59693536	     -0.54573891	      0.96104719	     -0.23474895	      2.48720991	      5.94677604	     -5.38815937	    -16.78361559	     15.86947399	      2.73400048	     21.89694373	     -1.95082521	      9.84277670	    -16.09991532	      5.45795565	     -5.01182576	      1.83402443	      2.79503809	     -0.34302232
      4.42000000	     -6.88777540	     -4.62320883	      6.66571053	     -0.55080091	      0.96105956	     -0.23302560	      2.58829501	      6.09129567	     -5.50392000	    -16.30187147	     15.89251129	      2.54530349	     22.01668068	     -2.08059426	      9.87826825	    -15.65448869	      5.49919164	     -4.94184154	      1.73348780	      2.84445929	     -0.45174182
      4.43000000	     -6.92879952	     -4.67836312	      6.76114421	     -0.55579626	      0.96108597	     -0.23136638	      2.67194769	      6.25246052	     -5.60778100	    -15.79923291	     15.90097017	      2.32213408	     22.14228236	     -2.22275833	      9.90131600	    -15.22598573	      5.65371197	     -4.84118332	      1.64243488	      2.91209726	     -0.58101777
      4.44000000	     -6.97475094	     -4.73071717	      6.87372663	     -0.56072108	      0.96113529	     -0.22977303	      2.76160541	      6.40731131	     -5.72288662	    -15.30344845	     15.86141257	      1.92518009	     22.28344384	     -2.35851827	      9.87381777	    -14.82509790	      5.92789141	     -4.60848702	      1.56614012	      2.97681754	     -0.71869723
      4.45000000	     -7.00599350	     -4.83693660	      6.99821415	     -0.56556221	      0.96124742	     -0.22821934	      2.83087281	      6.61486650	     -5.81617394	    -14.79426269	     15.79130291	      1.82532038	     22.42117317	     -2.55088114	      9.83411913	    -14.43849080	      6.25420178	     -4.51567200	      1.49036066	      3.10342323	     -0.85476758
      4.46000000	     -7.04584126	     -4.94695212	      7.15081387	     -0.57032353	      0.96139691	     -0.22674977	      2.92312036	      6.81864695	     -5.94699102	    -14.31148917	     15.65278861	      1.53721404	     22.58117864	     -2.73691381	      9.77113996	    -14.07969744	      6.68183896	     -4.19000497	      1.43665221	      3.23310025	     -1.01909616
      4.47000000	     -7.06066632	     -5.09464724	      7.28955317	     -0.57496681	      0.96162134	     -0.22530775	      2.99316776	      7.05913299	     -6.03781710	    -13.83913563	     15.51056705	      1.47780088	     22.73853015	     -2.97057891	      9.62755708	    -13.76901199	      7.15715003	     -4.09596930	      1.37103627	      3.41074130	     -1.14805194
      4.48000000	     -7.07739406	     -5.26149357	      7.44777656	     -0.57951382	      0.96189482	     -0.22393745	      3.08833290	      7.31111604	     -6.15259172	    -13.40664105	     15.31393179	      1.38055570	     22.91216613	     -3.21434194	      9.46961384	    -13.48746882	      7.66314061	     -3.90996449	      1.32273856	      3.60882143	     -1.29941409
      4.49000000	     -7.11807277	     -5.41632847	      7.61184777	     -0.58397112	      0.96218284	     -0.22263047	      3.24472731	      7.53777047	     -6.28828292	    -13.04466611	     15.07998399	      1.17188490	     23.12821487	     -3.43615019	      9.27215818	    -13.25570623	      8.19870538	     -3.50637219	      1.31148796	      3.78736528	     -1.45240728
      4.50000000	     -7.12673175	     -5.58561965	      7.76315599	     -0.58829644	      0.96255090	     -0.22138204	      3.38965597	      7.77501658	     -6.39011593	    -12.72909888	     14.83538325	      1.13016072	     23.31168107	     -3.67673317	      9.04540115	    -13.05137342	      8.68146047	     -3.38401205	      1.27852778	      3.99075079	     -1.58399642
      4.51000000	     -7.14155057	     -5.74023658	      7.92127137	     -0.59252280	      0.96292050	     -0.22021266	      3.57853206	      7.98467468	     -6.53446574	    -12.48792685	     14.60385145	      1.04571642	     23.53782360	     -3.89010335	      8.77046668	    -12.94337285	      9.11782705	     -3.20216635	      1.26238419	      4.17446211	     -1.71137075
      4.52000000	     -7.13393747	     -5.87648951	      8.06442367	     -0.59663720	      0.96333733	     -0.21909974	      3.78082429	      8.17090454	     -6.65034971	    -12.32667017	     14.36825214	      0.99573055	     23.73721993	     -4.08629696	      8.49915006	    -12.88455685	      9.47507304	     -3.11608677	      1.22686617	      4.34235785	     -1.83139664
      4.53000000	     -7.10322534	     -5.98776142	      8.20501875	     -0.60063380	      0.96377443	     -0.21806328	      3.98706532	      8.32553793	     -6.78011664	    -12.23208736	     14.17914108	      0.94956167	     23.93289570	     -4.25271658	      8.22227379	    -12.92826831	      9.73862335	     -3.07413681	      1.17169925	      4.48584290	     -1.93972864
      4.54000000	     -7.09298682	     -6.07507927	      8.34691906	     -0.60454002	      0.96419044	     -0.21707846	      4.25282340	      8.44438901	     -6.93839939	    -12.21514017	     13.96376217	      0.85791756	     24.15858541	     -4.38196118	      8.00999267	    -13.06500629	      9.86915086	     -3.00661950	      1.14396608	      4.59208155	     -2.04883500
      4.55000000	     -7.04416948	     -6.13667925	      8.48092944	     -0.60832215	      0.96464262	     -0.21617547	      4.49248532	      8.53500435	     -7.08122660	    -12.24416744	     13.78544972	      0.78446016	     24.34501543	     -4.48502647	      7.85365663	    -13.30377398	      9.91914902	     -2.98871468	      1.07570403	      4.68080434	     -2.14805914
      4.56000000	     -6.98429824	     -6.17295374	      8.61317364	     -0.61197490	      0.96510641	     -0.21533784	      4.73090350	      8.59428126	     -7.23257519	    -12.31018058	     13.61424720	      0.70993163	     24.50847558	     -4.55677510	      7.78341069	    -13.63190294	      9.86072798	     -2.98075040	      0.99986889	      4.74051559	     -2.24570308
      4.57000000	     -6.90586772	     -6.19230976	      8.74277495	     -0.61549531	      0.96558659	     -0.21454541	      4.95093340	      8.63554796	     -7.38164132	    -12.39741197	     13.45143657	      0.63534868	     24.64118655	     -4.60991723	      7.80039798	    -14.05100370	      9.72229663	     -2.97229500	      0.90831747	      4.78099821	     -2.34300636
      4.58000000	     -6.80624063	     -6.19363012	      8.86461350	     -0.61887608	      0.96608555	     -0.21380271	      5.14098441	      8.65821516	     -7.51726749	    -12.49221610	     13.29982526	      0.56651814	     24.72903355	     -4.64494269	      7.90414608	    -14.54822849	      9.53929716	     -2.95430662	      0.79837550	      4.80379834	     -2.43667372
      4.59000000	     -6.68873503	     -6.18046121	      8.97966089	     -0.62211211	      0.96659790	     -0.21311712	      5.29794155	      8.66649807	     -7.63877013	    -12.58426972	     13.15666566	      0.50528662	     24.76983905	     -4.66455504	      8.08222842	    -15.10948501	      9.34601023	     -2.92075907	      0.67568532	      4.81364002	     -2.52710170
      4.60000000	     -6.55655855	     -6.15698751	      9.08883132	     -0.62520603	      0.96711625	     -0.21247703	      5.42171795	      8.66496789	     -7.75447265	    -12.66622071	     13.01887781	      0.45052959	     24.76683959	     -4.67477054	      8.31819142	    -15.72566054	      9.16792919	     -2.86824034	      0.54411567	      4.81318839	     -2.62226275
      4.61000000	     -6.41260969	     -6.12124900	      9.18556764	     -0.62815661	      0.96763539	     -0.21189515	      5.51290356	      8.65095127	     -7.84928541	    -12.73669860	     12.88750624	      0.40415868	     24.71692998	     -4.67435809	      8.59523290	    -16.38526428	      9.02921149	     -2.79863164	      0.40955680	      4.80513550	     -2.71280266
      4.62000000	     -6.26074600	     -6.07944698	      9.27332652	     -0.63097136	      0.96814680	     -0.21135218	      5.57718885	      8.63213927	     -7.93484411	    -12.79488849	     12.76212963	      0.36386704	     24.62870604	     -4.66998091	      8.90291695	    -17.08416209	      8.94777480	     -2.71371264	      0.27574447	      4.79039763	     -2.80614299
      4.63000000	     -6.10716553	     -6.03534910	      9.34975488	     -0.63365723	      0.96864074	     -0.21085857	      5.62153082	      8.61025387	     -8.00938526	    -12.84047582	     12.64311290	      0.32394300	     24.51092836	     -4.66459500	      9.23061953	    -17.81966307	      8.93025063	     -2.60658058	      0.15086006	      4.77666408	     -2.89728081
      4.64000000	     -5.95420034	     -5.99463362	      9.41622983	     -0.63621798	      0.96911126	     -0.21038753	      5.65264405	      8.59291477	     -8.07707689	    -12.87662316	     12.52842748	      0.28156878	     24.37153555	     -4.66590161	      9.56570085	    -18.59018405	      8.98333092	     -2.46784861	      0.03851992	      4.76381441	     -2.98718621
